<mxfile host="app.diagrams.net" agent="Mozilla/5.0 (Windows NT 10.0; Win64; x64) AppleWebKit/537.36 (KHTML, like Gecko) Chrome/130.0.0.0 Safari/537.36 OPR/115.0.0.0" version="25.0.3">
  <diagram name="Страница — 1" id="K7GJ0Vg69oAeQyXxVCvr">
    <mxGraphModel dx="996" dy="566" grid="1" gridSize="10" guides="1" tooltips="1" connect="1" arrows="1" fold="1" page="1" pageScale="1" pageWidth="827" pageHeight="1169" math="0" shadow="0">
      <root>
        <mxCell id="0" />
        <mxCell id="1" parent="0" />
        <mxCell id="sb3V1xPykAOrpS2keT21-1" value="Minikube" style="swimlane;whiteSpace=wrap;html=1;" vertex="1" parent="1">
          <mxGeometry x="380" y="180" width="460" height="320" as="geometry" />
        </mxCell>
        <mxCell id="sb3V1xPykAOrpS2keT21-9" style="edgeStyle=orthogonalEdgeStyle;rounded=0;orthogonalLoop=1;jettySize=auto;html=1;exitX=1;exitY=0.5;exitDx=0;exitDy=0;entryX=0;entryY=0.5;entryDx=0;entryDy=0;" edge="1" parent="sb3V1xPykAOrpS2keT21-1" source="sb3V1xPykAOrpS2keT21-3" target="sb3V1xPykAOrpS2keT21-5">
          <mxGeometry relative="1" as="geometry" />
        </mxCell>
        <mxCell id="sb3V1xPykAOrpS2keT21-3" value="Port-forward and service" style="ellipse;whiteSpace=wrap;html=1;" vertex="1" parent="sb3V1xPykAOrpS2keT21-1">
          <mxGeometry x="20" y="150" width="100" height="60" as="geometry" />
        </mxCell>
        <mxCell id="sb3V1xPykAOrpS2keT21-4" value="Node" style="swimlane;whiteSpace=wrap;html=1;" vertex="1" parent="sb3V1xPykAOrpS2keT21-1">
          <mxGeometry x="240" y="50" width="200" height="240" as="geometry" />
        </mxCell>
        <mxCell id="sb3V1xPykAOrpS2keT21-5" value="Pod" style="rounded=1;whiteSpace=wrap;html=1;" vertex="1" parent="sb3V1xPykAOrpS2keT21-4">
          <mxGeometry x="40" y="50" width="120" height="60" as="geometry" />
        </mxCell>
        <mxCell id="sb3V1xPykAOrpS2keT21-6" value="Pod" style="rounded=1;whiteSpace=wrap;html=1;" vertex="1" parent="sb3V1xPykAOrpS2keT21-4">
          <mxGeometry x="40" y="150" width="120" height="60" as="geometry" />
        </mxCell>
        <mxCell id="sb3V1xPykAOrpS2keT21-14" value="Port 3000" style="text;html=1;align=center;verticalAlign=middle;resizable=0;points=[];autosize=1;strokeColor=none;fillColor=none;" vertex="1" parent="sb3V1xPykAOrpS2keT21-1">
          <mxGeometry x="120" y="150" width="80" height="30" as="geometry" />
        </mxCell>
        <mxCell id="sb3V1xPykAOrpS2keT21-12" style="edgeStyle=orthogonalEdgeStyle;rounded=0;orthogonalLoop=1;jettySize=auto;html=1;exitX=1;exitY=0.5;exitDx=0;exitDy=0;entryX=0;entryY=0.5;entryDx=0;entryDy=0;" edge="1" parent="1" source="sb3V1xPykAOrpS2keT21-2" target="sb3V1xPykAOrpS2keT21-3">
          <mxGeometry relative="1" as="geometry" />
        </mxCell>
        <mxCell id="sb3V1xPykAOrpS2keT21-2" value="Web browser" style="rounded=1;whiteSpace=wrap;html=1;" vertex="1" parent="1">
          <mxGeometry x="140" y="330" width="120" height="60" as="geometry" />
        </mxCell>
        <mxCell id="sb3V1xPykAOrpS2keT21-10" value="" style="endArrow=none;html=1;rounded=0;" edge="1" parent="1">
          <mxGeometry width="50" height="50" relative="1" as="geometry">
            <mxPoint x="580" y="410" as="sourcePoint" />
            <mxPoint x="580" y="360" as="targetPoint" />
          </mxGeometry>
        </mxCell>
        <mxCell id="sb3V1xPykAOrpS2keT21-11" value="" style="endArrow=classic;html=1;rounded=0;entryX=0;entryY=0.5;entryDx=0;entryDy=0;" edge="1" parent="1" target="sb3V1xPykAOrpS2keT21-6">
          <mxGeometry width="50" height="50" relative="1" as="geometry">
            <mxPoint x="580" y="410" as="sourcePoint" />
            <mxPoint x="450" y="270" as="targetPoint" />
          </mxGeometry>
        </mxCell>
        <mxCell id="sb3V1xPykAOrpS2keT21-13" value="Port 3000" style="text;html=1;align=center;verticalAlign=middle;resizable=0;points=[];autosize=1;strokeColor=none;fillColor=none;" vertex="1" parent="1">
          <mxGeometry x="270" y="330" width="80" height="30" as="geometry" />
        </mxCell>
      </root>
    </mxGraphModel>
  </diagram>
</mxfile>
